PathFileType	4	(X/Y/Z)	C:\Users\Basilio\Documents\Thesis Gigler\squatting_fais\c3dfiles\044\SLS_front_pre2\markers_experimental.trc
DataRate	CameraRate	NumFrames	NumMarkers	Units	OrigDataRate	OrigDataStartFrame	OrigNumFrames
200.000000	200.000000	4	60	mm	200.000000	1215	1620
Frame#	Time	FHD			LBHD			RBHD			C7			T10			CLAV			LSHO			LUUPA			LMUPA			LDUPA			LLEP			LMEP			LRAD			LRFIN			RSHO			RUPA1			RMUPA			RDUPA			RLEP			RMEP			RUL			LASI			RASI			USACR			LSACR			RSACR			LTHI1			LTHI2			LTHI3			LTHI4			LLFC			LMFC			LTIB1			LTIB2			LTIB3			LTIB4			LLMAL			LMMAL			LHEE			LMT1			LMT2			LMT5			RTHI			RTHI2			RTHI3			RTHI4			RLFC			RMFC			RTIB1			RTIB2			RTIB3			RTIB4			RLMAL			RMMAL			RHEE			RMT1			RMT2			RMT5			RUFIN			LUL			
		X1	Y1	Z1	X2	Y2	Z2	X3	Y3	Z3	X4	Y4	Z4	X5	Y5	Z5	X6	Y6	Z6	X7	Y7	Z7	X8	Y8	Z8	X9	Y9	Z9	X10	Y10	Z10	X11	Y11	Z11	X12	Y12	Z12	X13	Y13	Z13	X14	Y14	Z14	X15	Y15	Z15	X16	Y16	Z16	X17	Y17	Z17	X18	Y18	Z18	X19	Y19	Z19	X20	Y20	Z20	X21	Y21	Z21	X22	Y22	Z22	X23	Y23	Z23	X24	Y24	Z24	X25	Y25	Z25	X26	Y26	Z26	X27	Y27	Z27	X28	Y28	Z28	X29	Y29	Z29	X30	Y30	Z30	X31	Y31	Z31	X32	Y32	Z32	X33	Y33	Z33	X34	Y34	Z34	X35	Y35	Z35	X36	Y36	Z36	X37	Y37	Z37	X38	Y38	Z38	X39	Y39	Z39	X40	Y40	Z40	X41	Y41	Z41	X42	Y42	Z42	X43	Y43	Z43	X44	Y44	Z44	X45	Y45	Z45	X46	Y46	Z46	X47	Y47	Z47	X48	Y48	Z48	X49	Y49	Z49	X50	Y50	Z50	X51	Y51	Z51	X52	Y52	Z52	X53	Y53	Z53	X54	Y54	Z54	X55	Y55	Z55	X56	Y56	Z56	X57	Y57	Z57	X58	Y58	Z58	X59	Y59	Z59	X60	Y60	Z60	

1216	6.075	-208.0894317626954	1807.39892578125	-935.178649902344	-341.1464843750001	1762.735473632813	-1005.727844238281	-375.3200683593751	1742.547973632813	-843.4873046875002	-388.1505126953126	1575.842651367188	-933.2141113281252	-410.0429077148439	1274.20947265625	-917.4505004882815	-248.5101623535157	1534.73193359375	-933.4312744140627	-289.2870178222657	1585.227416992188	-1082.566162109375	-124.3981552124024	1535.768676757813	-1172.38671875	-97.44937896728518	1545.947265625	-1130.392944335938	-56.2205276489258	1522.518920898438	-1169.913452148438	0.5133861303329469	1515.358642578125	-1157.393188476563	-19.0776424407959	1441.206298828125	-1138.292724609375	252.8117828369141	1501.129638671875	-1036.534301757813	263.9329833984376	1517.19677734375	-935.9327392578127	-300.1445312500001	1577.51708984375	-770.952087402344	-145.2289581298828	1525.492431640625	-676.6856689453126	-114.6524734497071	1540.154052734375	-713.4808959960939	-75.85965728759767	1517.197875976563	-675.1448364257814	-14.75294780731202	1513.923217773438	-686.2106323242189	-27.00046920776368	1435.291748046875	-702.5659790039064	240.0256500244141	1504.57421875	-803.5994873046877	-248.5680084228516	1069.725830078125	-1017.826416015625	-244.4911193847657	1055.164306640625	-803.9302978515627	-414.2188720703126	1120.430786132813	-904.6021118164065	-417.8396301269532	1087.081787109375	-930.7740478515627	-419.7146606445314	1092.716918945313	-874.0960693359377	-333.7476196289063	830.771423339844	-1094.990844726563	-293.5865478515626	755.8377685546876	-1098.845947265625	-245.9888763427735	763.1354980468751	-1096.969604492188	-314.2253723144532	701.2930297851564	-1085.49267578125	-281.5451965332032	544.5350952148439	-1076.856567382813	-268.7671813964844	537.0768432617189	-955.5308837890627	-263.7599792480469	367.5625610351563	-1005.50634765625	-293.5736389160157	322.5232238769532	-1076.064331054688	-262.2255859375001	319.7680358886719	-1040.185424804688	-282.9359130859376	243.1101684570313	-1010.738098144531	-342.2538757324219	130.6330718994141	-1057.401245117188	-323.3077392578126	138.0706329345703	-973.220642089844	-408.0467224121095	112.1277389526367	-1008.5537109375	-202.1256408691407	61.69667816162111	-985.6723632812502	-200.9608306884766	63.34097290039064	-1032.845703125	-238.0024414062501	50.2167091369629	-1079.197998046875	-334.6651916503907	788.4008789062502	-721.8172607421876	-291.1466979980469	737.3429565429689	-715.5365600585939	-258.0615539550782	741.4540405273439	-719.7082519531251	-308.9131469726563	655.9829711914064	-730.9001464843751	-299.3834228515626	543.4537963867189	-732.8794555664064	-310.4584655761719	532.0148315429689	-855.0645141601565	-258.0615844726563	413.2176208496095	-756.5046386718751	-327.2030944824219	346.9646606445313	-701.3206176757814	-287.2120056152344	337.3266296386719	-721.9904785156251	-281.0214233398438	285.2471313476563	-745.8814086914064	-349.8979492187501	138.2499389648438	-718.5939941406251	-336.2779541015626	140.5423583984375	-802.0534667968752	-412.6494140625001	110.9637069702149	-758.1101074218751	-209.7890930175782	66.58408355712892	-791.5472412109377	-201.7147521972657	62.90767288208009	-755.6806640625001	-237.7346954345704	49.34207916259767	-700.3081054687501	257.4145812988282	1491.0107421875	-917.497985839844	nan	nan	nan	
1217	6.08	-208.5583801269532	1808.2216796875	-933.674255371094	-341.7952880859376	1763.131958007813	-1004.203918457031	-375.9843444824219	1742.727294921875	-841.3762207031252	-388.1173706054689	1576.266235351563	-931.3879394531252	-409.8780212402345	1274.712768554688	-916.0115966796877	-248.6298980712891	1535.073608398438	-931.9182739257815	-289.7947387695313	1585.202392578125	-1081.397705078125	-125.1444625854492	1535.242431640625	-1171.308837890625	-97.97097778320315	1545.387573242188	-1129.38720703125	-57.12320709228517	1521.816772460938	-1168.71337890625	0.2248722165822983	1514.280517578125	-1156.491577148438	-20.131254196167	1440.829711914063	-1136.396850585938	252.3238830566407	1500.56103515625	-1035.535278320313	263.6449890136719	1517.619262695313	-935.3557128906252	-299.7839355468751	1577.73193359375	-769.3958129882815	-145.0788269042969	1524.2958984375	-675.2561645507814	-114.6689605712891	1539.957641601563	-712.1948852539064	-75.71262359619142	1516.7744140625	-674.2312622070314	-14.83492660522461	1513.2197265625	-684.9943847656251	-27.09536933898926	1434.84423828125	-701.4011840820314	239.8951721191407	1504.3115234375	-802.5518188476565	-248.0113830566407	1070.069091796875	-1016.880493164063	-243.9136352539063	1055.680419921875	-802.6950683593752	-413.461151123047	1120.024169921875	-903.7183837890627	-419.7867736816407	1087.36865234375	-929.5544433593752	-417.1920471191407	1091.04736328125	-873.1311645507815	-333.1172485351563	830.9976196289065	-1093.991455078125	-292.9182434082032	756.2700805664064	-1097.525390625	-245.5233306884766	763.2733764648439	-1095.78662109375	-313.6364135742188	701.4714355468751	-1084.654174804688	-280.9842224121094	544.6516113281251	-1076.009155273438	-268.4407653808594	537.5459594726564	-954.8811035156252	-263.7452087402344	367.8055725097657	-1004.769165039063	-293.2843017578126	322.8835754394532	-1075.744873046875	-262.3067016601563	319.9843139648438	-1039.616455078125	-282.8533630371094	243.2928771972657	-1010.378479003906	-342.1312866210938	130.923080444336	-1057.334594726563	-323.1138305664063	138.5251922607422	-973.226257324219	-407.7750854492189	111.6602783203125	-1008.134216308594	-202.509750366211	62.09958267211915	-985.8745117187502	-200.9274139404297	63.37800979614259	-1032.761596679688	-237.9519348144532	50.24529266357423	-1079.2216796875	-334.1461486816407	789.5513305664065	-721.0335083007814	-290.4656982421876	738.1118164062501	-715.3883666992189	-257.4947509765626	742.2284545898439	-719.7185058593751	-308.5428161621094	656.8685913085939	-730.3793334960939	-299.3294982910157	544.0914916992189	-732.5838012695314	-311.1830749511719	533.3252563476564	-854.8872070312502	-258.3404235839844	413.8256835937501	-756.7025756835939	-327.1006774902344	347.3245544433594	-701.2137451171876	-287.2045288085938	338.2008666992188	-721.9485473632814	-281.2826843261719	286.1527099609376	-745.9588012695314	-349.9085998535157	138.3463897705078	-718.5755004882814	-336.0261230468751	140.741455078125	-801.9976196289065	-412.3823852539064	110.7597351074219	-758.2156982421876	-209.7373657226563	66.49082946777345	-791.6362915039065	-201.6250305175782	62.84627914428712	-755.5902709960939	-237.4850769042969	49.65609741210939	-700.0328369140626	256.9582519531251	1490.474975585938	-916.6101684570315	nan	nan	nan	
1218	6.085	-208.8656921386719	1808.696411132813	-932.2939453125002	-343.1471862792969	1763.100708007813	-1002.489990234375	-376.1410217285157	1743.542724609375	-840.2136230468752	-388.138641357422	1576.850708007813	-929.660583496094	-409.7138671875001	1275.282958984375	-914.467956542969	-248.5592041015626	1535.673706054688	-930.546325683594	-290.3585510253907	1585.802001953125	-1080.037353515625	-125.9349594116211	1534.513305664063	-1170.143798828125	-98.72946929931643	1545.010009765625	-1128.318115234375	-58.04884338378908	1521.107055664063	-1167.639770507813	-0.5316993594169618	1513.527587890625	-1155.400268554688	-20.63291740417481	1440.2275390625	-1135.110107421875	251.9223937988282	1499.945556640625	-1034.795166015625	263.1835021972657	1517.2412109375	-934.4351806640627	-300.1583557128907	1577.9345703125	-767.3883056640626	-145.1004943847657	1523.856567382813	-674.0349731445314	-114.6440811157227	1539.649658203125	-710.3386840820314	-75.77474975585939	1516.23193359375	-672.4062500000001	-14.87812328338623	1512.62109375	-683.6110839843751	-27.09296607971192	1434.4794921875	-700.4465942382814	239.8544921875001	1503.739135742188	-801.4958496093752	-245.4607391357422	1071.138671875	-1017.24951171875	-243.3504180908204	1056.375854492188	-801.4729614257815	-413.1529235839845	1120.119995117188	-903.072692871094	-419.3343200683595	1087.233764648438	-928.597351074219	-416.954071044922	1091.1904296875	-872.4074707031252	-332.5587768554688	831.223815917969	-1093.300170898438	-292.5399169921876	756.7208251953126	-1096.76708984375	-244.8847808837891	763.4703979492189	-1094.760131835938	-313.2099304199219	701.7327270507814	-1083.85400390625	-281.3487548828126	545.3771362304689	-1075.036376953125	-268.3764038085938	537.6905517578126	-953.9802246093752	-263.9731750488282	368.4537048339844	-1004.130065917969	-293.0261840820313	323.3725585937501	-1075.272338867188	-262.3062438964844	320.5184631347657	-1039.133544921875	-283.0206298828126	243.3595581054688	-1009.998413085938	-342.3137817382813	131.2817840576172	-1057.138427734375	-322.7785034179688	138.5025482177735	-973.1202392578127	-407.7781066894532	111.7635879516602	-1008.013244628906	-202.4878997802735	62.25811004638673	-985.8142089843752	-200.8780517578126	63.36876678466798	-1032.68408203125	-237.9129180908204	50.18476867675783	-1079.132202148438	-333.2386779785157	790.476745605469	-720.5747680664064	-289.5984497070313	738.8573608398439	-714.7996215820314	-256.9969787597657	743.3353881835939	-719.4327392578126	-308.5213928222657	657.9913330078126	-729.5463256835939	-299.3568725585938	544.5593872070314	-731.9133911132814	-312.0064392089844	534.2982177734376	-854.4832763671877	-258.6037597656251	414.5123291015626	-756.7622680664064	-327.0877075195313	347.7738647460938	-700.8690795898439	-287.2505493164063	338.7919616699219	-721.7413940429689	-281.2344360351563	286.2565002441407	-745.7698364257814	-349.8830566406251	138.4192047119141	-718.2921142578126	-335.8967590332032	140.9487915039063	-801.7338867187502	-412.5572509765626	111.0431900024414	-757.9528808593751	-209.7245330810547	66.49967193603517	-791.667419433594	-201.5811462402344	62.84813308715822	-755.5439453125001	-237.4511108398438	49.53144454956056	-699.9281616210939	256.8382568359376	1489.4091796875	-915.6729125976565	nan	nan	nan	
1219	6.09	-209.5423583984376	1809.839599609375	-930.8508911132815	-343.0410461425782	1764.201049804688	-1001.05908203125	-376.3162841796876	1744.161010742188	-838.4986572265627	-388.5147399902345	1577.438232421875	-928.2312622070315	-409.4027709960939	1275.61474609375	-913.227233886719	-249.1303100585938	1536.387084960938	-928.9821777343752	-290.5562744140626	1586.000244140625	-1078.986450195313	-126.5352630615235	1533.775634765625	-1169.2265625	-99.3530197143555	1544.634155273438	-1127.49609375	-58.69722366333009	1520.39404296875	-1166.70263671875	-1.492965698242188	1513.116821289063	-1154.371459960938	-21.66856193542481	1439.773193359375	-1133.204711914063	251.6013946533204	1499.384765625	-1034.218383789063	262.9475708007813	1517.202880859375	-933.8132324218752	-299.6934204101563	1578.192626953125	-765.6576538085939	-145.300521850586	1523.415283203125	-672.2825927734376	-114.699577331543	1539.486694335938	-708.6839599609376	-75.64238739013673	1515.813232421875	-671.2443847656251	-14.91580486297608	1512.217041015625	-682.1725463867189	-27.32600593566895	1433.952270507813	-699.7437133789064	239.8101043701172	1503.071166992188	-800.4587402343752	-245.1597290039063	1071.579223632813	-1016.486755371094	-242.4049530029297	1057.259643554688	-800.8610839843752	-412.5145263671876	1120.302368164063	-902.4287109375002	-416.4509887695314	1086.959350585938	-928.2818603515627	-417.549041748047	1092.71142578125	-871.7672119140627	-332.0526733398438	831.559020996094	-1092.4365234375	-292.0596008300782	757.0707397460939	-1095.889404296875	-244.2903289794922	763.9551391601564	-1093.748291015625	-312.9617919921876	702.2777709960939	-1082.8623046875	-281.2599792480469	545.7958374023439	-1074.221557617188	-268.2104797363282	538.0186767578126	-953.3737792968752	-264.0097351074219	368.6075439453126	-1003.525146484375	-293.1662902832032	323.8651428222657	-1074.692138671875	-262.5444641113282	321.2919311523438	-1038.442504882813	-283.3303833007813	243.7147674560547	-1009.807861328125	-342.2424926757813	131.6313781738282	-1057.05419921875	-322.5705871582032	138.5774993896485	-972.968688964844	-407.864227294922	111.9838409423828	-1007.760437011719	-202.4583892822266	62.40023422241212	-985.7255859375002	-200.8627014160157	63.4637794494629	-1032.603515625	-237.8255462646485	50.30808639526369	-1079.046752929688	-332.4933471679688	791.5881347656252	-719.9221191406251	-288.8500671386719	739.7124633789064	-714.5304565429689	-256.0587768554688	743.9589233398439	-719.3336181640626	-307.8889465332032	658.8529663085939	-728.6781005859376	-299.7325744628907	545.1812133789064	-731.1934204101564	-312.6544494628907	534.9790039062501	-853.8732910156252	-259.1940002441407	415.1697082519532	-756.2929077148439	-327.1885375976563	348.2379760742188	-700.2957763671876	-287.6896667480469	339.0600585937501	-721.0331420898439	-281.7332763671876	287.0427856445313	-745.1939697265626	-350.0008850097657	138.5984497070313	-717.9882812500001	-335.8704223632813	141.1872711181641	-801.4155883789065	-412.3292846679689	110.9146347045899	-757.8557128906251	-209.5397491455079	66.53993225097658	-791.5393066406252	-201.6275329589844	62.70960235595705	-755.3344116210939	-237.4160919189454	49.45545196533205	-699.8157348632814	256.0658874511719	1490.557495117188	-914.7387695312502	nan	nan	nan	
